<svg id="Layer_1" data-name="Layer 1" xmlns="http://www.w3.org/2000/svg" viewBox="0 0 62.15 66.24"><defs><style>.cls-1{fill:#05c3dd;}.cls-2{fill:#26d07c;}.cls-3{fill:#97d700;}.cls-4{font-size:12px;fill:#366;font-family:ArialMT, Arial;}</style></defs><path class="cls-1" d="M97.92,158.4s18.14-8.37,12.62-28-26.07-15.88-26.07-15.88a20.36,20.36,0,0,0-13.27,7.77,19.69,19.69,0,0,0-3.72,10.38,15.88,15.88,0,0,1,7.6-7c8.23-3.41,16.1,2.53,17.07,3.29a20.85,20.85,0,0,1,6.9,10.49A27.34,27.34,0,0,1,97.92,158.4Z" transform="translate(-49.44 -108.42)"/><path class="cls-2" d="M75.23,148.61c.07,0,.26.08.34,0,.5-.54-5.66-4.58-7.6-10.16-2.39-6.89,2-15.15,6-19.41a24.93,24.93,0,0,1,5.29-4.19A27.25,27.25,0,0,1,89,111.26s-15.6-8.32-25.69,3.5S59.81,145.53,75.23,148.61Z" transform="translate(-49.44 -108.42)"/><path class="cls-3" d="M90.17,139.32s-2,16.34-17.87,18.64-32.94-18.9-15.58-36.51c0,0-1.53,17.1,9.45,23.23S86.24,147.49,90.17,139.32Z" transform="translate(-49.44 -108.42)"/><text class="cls-4" transform="translate(4.87 62.35)">logi-Cloud</text><path class="cls-2" d="M110.43,102.72" transform="translate(-49.44 -108.42)"/><path class="cls-2" d="M106.68,107" transform="translate(-49.44 -108.42)"/></svg>